<?xml version="1.0" encoding="UTF-8" standalone="no"?>
<svg
   xmlns:dc="http://purl.org/dc/elements/1.1/"
   xmlns:cc="http://creativecommons.org/ns#"
   xmlns:rdf="http://www.w3.org/1999/02/22-rdf-syntax-ns#"
   xmlns:svg="http://www.w3.org/2000/svg"
   xmlns="http://www.w3.org/2000/svg"
   xmlns:xlink="http://www.w3.org/1999/xlink"
   version="1.1"
   id="svg2"
   viewBox="0 0 602.85712 570.67402"
   height="570.67401"
   width="602.85712">
  <defs
     id="defs4">
    <linearGradient
       id="linearGradient5410">
      <stop
         id="stop5406"
         offset="0"
         style="stop-color:#f69e6e;stop-opacity:1;" />
      <stop
         id="stop5408"
         offset="1"
         style="stop-color:#f69e20;stop-opacity:0" />
    </linearGradient>
    <linearGradient
       id="linearGradient5246">
      <stop
         id="stop5242"
         offset="0"
         style="stop-color:#f6c384;stop-opacity:1" />
      <stop
         id="stop5244"
         offset="1"
         style="stop-color:#e8dd84;stop-opacity:0;" />
    </linearGradient>
    <linearGradient
       id="linearGradient5198">
      <stop
         id="stop5194"
         offset="0"
         style="stop-color:#eec900;stop-opacity:1;" />
      <stop
         id="stop5196"
         offset="1"
         style="stop-color:#eec900;stop-opacity:0;" />
    </linearGradient>
    <linearGradient
       id="linearGradient5156">
      <stop
         id="stop5152"
         offset="0"
         style="stop-color:#eedf00;stop-opacity:1" />
      <stop
         id="stop5154"
         offset="1"
         style="stop-color:#ee2b00;stop-opacity:0;" />
    </linearGradient>
    <linearGradient
       id="linearGradient1237">
      <stop
         id="stop1233"
         offset="0"
         style="stop-color:#cccccc;stop-opacity:1;" />
      <stop
         id="stop1235"
         offset="1"
         style="stop-color:#cccccc;stop-opacity:0;" />
    </linearGradient>
    <linearGradient
       gradientTransform="matrix(5.7196395,0,0,4.8224099,356.76311,-38.595147)"
       gradientUnits="userSpaceOnUse"
       y2="154.06044"
       x2="20.97307"
       y1="127.49457"
       x1="13.730169"
       id="linearGradient1271-1-0"
       xlink:href="#linearGradient1269" />
    <linearGradient
       id="linearGradient1269">
      <stop
         id="stop1265"
         offset="0"
         style="stop-color:#f2f2f2;stop-opacity:1;" />
      <stop
         id="stop1267"
         offset="1"
         style="stop-color:#f2f2f2;stop-opacity:0;" />
    </linearGradient>
    <linearGradient
       gradientTransform="matrix(4.5652962,0,0,4.5786542,13.72442,109.03723)"
       gradientUnits="userSpaceOnUse"
       y2="115.15711"
       x2="71.998566"
       y1="98.507568"
       x1="76.275597"
       id="linearGradient1255-9"
       xlink:href="#linearGradient1269" />
    <linearGradient
       gradientTransform="matrix(6.5435663,0,0,5.621478,-116.92519,-76.46519)"
       gradientUnits="userSpaceOnUse"
       y2="145.99387"
       x2="55.497967"
       y1="123.73015"
       x1="55.497967"
       id="linearGradient1263-2"
       xlink:href="#linearGradient1269" />
    <linearGradient
       gradientTransform="matrix(4.6188385,0,0,4.8079452,-58.48415,-97.34672)"
       gradientUnits="userSpaceOnUse"
       y2="145.34854"
       x2="121.6438"
       y1="127.6021"
       x1="118.09451"
       id="linearGradient1247"
       xlink:href="#linearGradient1245" />
    <linearGradient
       id="linearGradient1245">
      <stop
         id="stop1241"
         offset="0"
         style="stop-color:#e6e6e6;stop-opacity:1;" />
      <stop
         id="stop1243"
         offset="1"
         style="stop-color:#e6e6e6;stop-opacity:0;" />
    </linearGradient>
    <linearGradient
       gradientTransform="matrix(4.4707248,0,0,4.6365441,-151.91005,53.45003)"
       gradientUnits="userSpaceOnUse"
       y2="113.72761"
       x2="118.41718"
       y1="87.979126"
       x1="114.22256"
       id="linearGradient1239"
       xlink:href="#linearGradient1237" />
    <linearGradient
       gradientTransform="matrix(4.5652962,0,0,4.5786542,-80.85634,53.83649)"
       gradientUnits="userSpaceOnUse"
       y2="115.15711"
       x2="71.998566"
       y1="98.507568"
       x1="76.275597"
       id="linearGradient1255"
       xlink:href="#linearGradient1269" />
    <linearGradient
       gradientTransform="matrix(1.1860073,0,0,1.1860073,37.327577,-74.697475)"
       gradientUnits="userSpaceOnUse"
       y2="476.45932"
       x2="-198.89502"
       y1="708.04285"
       x1="-188.66679"
       id="linearGradient5150"
       xlink:href="#linearGradient5156" />
    <linearGradient
       gradientUnits="userSpaceOnUse"
       y2="540.01715"
       x2="-212.04861"
       y1="935.86499"
       x1="-191.84305"
       id="linearGradient5200"
       xlink:href="#linearGradient5198" />
    <linearGradient
       gradientTransform="matrix(1,0,0,1.4012652,0,-197.79709)"
       gradientUnits="userSpaceOnUse"
       y2="882.57605"
       x2="202.57147"
       y1="514.45679"
       x1="192.48941"
       id="linearGradient5248"
       xlink:href="#linearGradient5246" />
    <linearGradient
       gradientTransform="matrix(4.5652962,0,0,4.5786542,-247.83169,178.81343)"
       gradientUnits="userSpaceOnUse"
       y2="115.15711"
       x2="71.998566"
       y1="98.507568"
       x1="76.275597"
       id="linearGradient1255-9-2"
       xlink:href="#linearGradient1269" />
    <linearGradient
       gradientTransform="matrix(2.2018939,0,0,2.2018939,-8.79958,-1215.4641)"
       gradientUnits="userSpaceOnUse"
       y2="910.33014"
       x2="104.32802"
       y1="525.22351"
       x1="536.12555"
       id="linearGradient5412"
       xlink:href="#linearGradient5410" />
  </defs>
  <metadata
     id="metadata7">
    <rdf:RDF>
      <cc:Work
         rdf:about="">
        <dc:format>image/svg+xml</dc:format>
        <dc:type
           rdf:resource="http://purl.org/dc/dcmitype/StillImage" />
        <dc:title></dc:title>
      </cc:Work>
    </rdf:RDF>
  </metadata>
  <g
     transform="translate(0,-450.93356)"
     id="layer1">
    <rect
       y="450.93356"
       x="0"
       height="570.67401"
       width="602.85712"
       id="rect4136"
       style="fill:#002b00;fill-opacity:1;stroke:none;stroke-width:1;stroke-linecap:round;stroke-linejoin:round;stroke-miterlimit:4;stroke-dasharray:none;stroke-opacity:1" />
    <rect
       y="492.93353"
       x="7.4285784"
       height="520"
       width="588.23352"
       id="rect4136-6"
       style="fill:#ffffff;fill-opacity:1;stroke:none;stroke-width:1;stroke-linecap:round;stroke-linejoin:round;stroke-miterlimit:4;stroke-dasharray:none;stroke-opacity:1" />
    <rect
       y="492.93353"
       x="7.4285784"
       height="519.99994"
       width="588.23352"
       id="rect1207"
       style="opacity:1;fill:url(#linearGradient5248);fill-opacity:1;stroke:#ede1e1;stroke-width:0;stroke-linejoin:round;stroke-miterlimit:4;stroke-dasharray:none;stroke-opacity:0.68686865" />
    <path
       id="path5303-2-9"
       d="M 7.9750228,499.75486 7.3214285,1011.2907 562.13882,1010.7222 c 22.74596,-42.06651 32.23788,-93.14179 32.77933,-143.80028 2.33352,-76.09954 -15.93573,-142.8923 -47.82492,-200.48351 -23.25087,-41.47248 -55.54191,-80.65295 -96.989,-117.51224 C 339.13814,450.59978 152.42395,431.05947 7.9750228,499.75486 Z"
       style="fill:url(#linearGradient5412);fill-opacity:1;stroke:none;stroke-width:3.18288994px;stroke-linecap:butt;stroke-linejoin:miter;stroke-opacity:1" />
    <g
       transform="translate(459.3935,91.393398)"
       id="g4561">
      <rect
         style="opacity:1;fill:#554400;fill-opacity:1;stroke:#a49337;stroke-width:0;stroke-linejoin:round;stroke-miterlimit:4;stroke-dasharray:none;stroke-opacity:1"
         id="rect1283-3"
         width="25.658266"
         height="123.36529"
         x="-155.963"
         y="797.07336" />
      <rect
         style="opacity:1;fill:#008000;fill-opacity:1;stroke:#a49337;stroke-width:0;stroke-linejoin:round;stroke-miterlimit:4;stroke-dasharray:none;stroke-opacity:1"
         id="rect1285-56"
         width="164.89438"
         height="51.754368"
         x="-227.54808"
         y="746.83264" />
      <rect
         style="opacity:1;fill:#008000;fill-opacity:1;stroke:#a49337;stroke-width:0;stroke-linejoin:round;stroke-miterlimit:4;stroke-dasharray:none;stroke-opacity:1"
         id="rect1285-5-2"
         width="86.921104"
         height="22.436853"
         x="-198.81421"
         y="725.32965" />
      <rect
         style="opacity:1;fill:#008000;fill-opacity:1;stroke:#a49337;stroke-width:0;stroke-linejoin:round;stroke-miterlimit:4;stroke-dasharray:none;stroke-opacity:1"
         id="rect1285-5-0-9"
         width="39.202541"
         height="55.2812"
         x="-113.23373"
         y="693.26025" />
      <path
         style="opacity:1;fill:#554400;fill-opacity:1;stroke:none;stroke-width:0.04444961;stroke-opacity:1"
         d="m -180.11703,863.30904 -24.18183,-12.41109 9.62636,-0.0669 9.62636,-0.0669 14.20219,7.2746 c 7.8112,4.00103 14.39239,7.41366 14.62488,7.58372 0.37273,0.27252 0.41448,0.88751 0.35328,5.20326 l -0.0694,4.89413 z"
         id="path1009-1" />
      <rect
         style="opacity:1;fill:#008000;fill-opacity:1;stroke:#a49337;stroke-width:0;stroke-linejoin:round;stroke-miterlimit:4;stroke-dasharray:none;stroke-opacity:1"
         id="rect1285-8-27"
         width="45.628994"
         height="14.927938"
         x="-218.82257"
         y="836.03802" />
      <rect
         style="opacity:1;fill:#008000;fill-opacity:1;stroke:#a49337;stroke-width:0;stroke-linejoin:round;stroke-miterlimit:4;stroke-dasharray:none;stroke-opacity:1"
         id="rect1285-8-2-0"
         width="32.252853"
         height="14.927938"
         x="-209.52293"
         y="821.11017" />
      <rect
         style="opacity:1;fill:#008000;fill-opacity:1;stroke:#a49337;stroke-width:0;stroke-linejoin:round;stroke-miterlimit:4;stroke-dasharray:none;stroke-opacity:1"
         id="rect1285-5-0-9-9"
         width="73.051842"
         height="42.153698"
         x="-185.16028"
         y="660.5412" />
      <rect
         style="opacity:1;fill:#008000;fill-opacity:1;stroke:#a49337;stroke-width:0;stroke-linejoin:round;stroke-miterlimit:4;stroke-dasharray:none;stroke-opacity:1"
         id="rect1285-5-2-0"
         width="98.032784"
         height="25.972387"
         x="-210.07481"
         y="701.95581" />
    </g>
    <rect
       y="488.07642"
       x="36.428581"
       height="528.57141"
       width="528.57141"
       id="rect4136-3"
       style="fill:#ffffff;fill-opacity:0;stroke:none;stroke-width:1;stroke-linecap:round;stroke-linejoin:round;stroke-miterlimit:4;stroke-dasharray:none;stroke-opacity:1" />
    <path
       id="path5303-2"
       d="M 7.1716015,828.08006 6.9375068,1011.2907 205.64978,1011.0871 c 8.14664,-15.06647 11.54626,-33.35949 11.74018,-51.50323 0.83577,-27.25566 -5.70751,-51.17802 -17.12887,-71.80478 C 191.9336,872.92541 180.36831,858.8926 165.5237,845.69115 125.78031,810.47478 58.907133,803.47626 7.1716015,828.08006 Z"
       style="fill:#f6ce6e;fill-opacity:1;stroke:none;stroke-width:1.13997734px;stroke-linecap:butt;stroke-linejoin:miter;stroke-opacity:1" />
    <path
       id="path5303-3"
       d="M 7.6584408,833.03117 7.4285784,1012.9335 202.55266,1012.7336 c 7.99953,-14.7944 11.33776,-32.7571 11.52818,-50.57321 0.82067,-26.7635 -5.60445,-50.25389 -16.81957,-70.50818 C 189.08416,877.06675 177.7277,863.28732 163.15115,850.32426 124.12542,815.7438 58.459765,808.87166 7.6584408,833.03117 Z"
       style="fill:#f6d56e;fill-opacity:1;stroke:none;stroke-width:1.1193924px;stroke-linecap:butt;stroke-linejoin:miter;stroke-opacity:1" />
    <path
       id="path5303"
       d="M 7.1623018,835.35829 6.937507,1011.2907 197.75574,1011.0952 c 7.823,-14.46795 11.08757,-32.03426 11.27379,-49.45722 0.80256,-26.1729 -5.48078,-49.14492 -16.44841,-68.95226 -7.99667,-14.2636 -19.10252,-27.73895 -33.35741,-40.41595 C 121.05917,818.4524 56.842585,811.73191 7.1623018,835.35829 Z"
       style="fill:#f6df6e;fill-opacity:1;stroke:none;stroke-width:1.09469056px;stroke-linecap:butt;stroke-linejoin:miter;stroke-opacity:1" />
    <path
       id="path5303-7"
       d="M 7.3214285,844.53285 6.93751,1011.2907 l 180.86782,0 c 7.42911,-13.70589 10.54049,-30.353 10.73393,-46.86722 0.78612,-24.80729 -5.14725,-46.58749 -15.52372,-65.37258 C 175.44973,885.52334 164.9361,872.73991 151.43686,860.71012 115.29533,828.61916 54.433984,822.18676 7.3214285,844.53285 Z"
       style="fill:#f6e56c;fill-opacity:1;stroke:none;stroke-width:1.03760612px;stroke-linecap:butt;stroke-linejoin:miter;stroke-opacity:1" />
    <path
       id="path5303-7-2"
       d="M 7.3077155,850.48981 6.93751,1011.2907 l 174.40682,0 c 7.16373,-13.21629 10.16396,-29.26872 10.35049,-45.19302 0.75804,-23.92112 -4.96338,-44.92328 -14.96918,-63.03733 -7.29554,-13.04432 -17.4336,-25.3711 -30.45062,-36.97116 C 111.42455,835.14459 52.73731,828.94197 7.3077155,850.48981 Z"
       style="fill:#f6f16c;fill-opacity:1;stroke:none;stroke-width:1.00054049px;stroke-linecap:butt;stroke-linejoin:miter;stroke-opacity:1" />
    <g
       id="g4577">
      <rect
         style="opacity:1;fill:#554400;fill-opacity:1;stroke:#a49337;stroke-width:0;stroke-linejoin:round;stroke-miterlimit:4;stroke-dasharray:none;stroke-opacity:1"
         id="rect1283"
         width="19.888748"
         height="105.80449"
         x="58.008923"
         y="904.61151" />
      <rect
         style="opacity:1;fill:#008000;fill-opacity:1;stroke:#a49337;stroke-width:0;stroke-linejoin:round;stroke-miterlimit:4;stroke-dasharray:none;stroke-opacity:1"
         id="rect1285"
         width="127.81623"
         height="38.942368"
         x="2.5204558"
         y="865.66791" />
      <rect
         style="opacity:1;fill:#008000;fill-opacity:1;stroke:#a49337;stroke-width:0;stroke-linejoin:round;stroke-miterlimit:4;stroke-dasharray:none;stroke-opacity:1"
         id="rect1285-5"
         width="61.069565"
         height="34.57206"
         x="25.888302"
         y="832.87964" />
      <rect
         style="opacity:1;fill:#008000;fill-opacity:1;stroke:#a49337;stroke-width:0;stroke-linejoin:round;stroke-miterlimit:4;stroke-dasharray:none;stroke-opacity:1"
         id="rect1285-5-0"
         width="24.8958"
         height="16.810217"
         x="85.224907"
         y="850.63196" />
      <path
         style="opacity:1;fill:#554400;fill-opacity:1;stroke:none;stroke-width:0.05225335;stroke-opacity:1"
         d="m 39.286159,955.95344 -18.744297,-9.62032 7.461774,-0.0518 7.46178,-0.0518 11.008676,5.63883 c 6.054777,3.10137 11.156123,5.74663 11.336335,5.87845 0.288914,0.21124 0.321284,0.68794 0.273841,4.03325 l -0.05383,3.79364 z"
         id="path1009" />
      <rect
         style="opacity:1;fill:#008000;fill-opacity:1;stroke:#a49337;stroke-width:0;stroke-linejoin:round;stroke-miterlimit:4;stroke-dasharray:none;stroke-opacity:1"
         id="rect1285-8"
         width="35.368858"
         height="11.571241"
         x="9.2839594"
         y="934.81458" />
      <rect
         style="opacity:1;fill:#008000;fill-opacity:1;stroke:#a49337;stroke-width:0;stroke-linejoin:round;stroke-miterlimit:4;stroke-dasharray:none;stroke-opacity:1"
         id="rect1285-8-2"
         width="25.000477"
         height="11.571241"
         x="16.492455"
         y="925.24341" />
    </g>
    <path
       id="path4179-3"
       d="m 406.75694,701.08272 146.33645,73.71022 -9.25734,17.92913 24.34582,10.83974 -62.91405,98.6416 48.86597,27.09935 -25.9718,37.89549 41.10384,21.09392 -9.21378,23.89093 -236.76108,0.542 c 4.1819,-26.10538 14.7308,-50.08849 34.23232,-71.08738 l -20.18423,-12.01087 6.5716,22.46042 -51.46936,-28.83352 13.26055,-21.78255 c 5.1713,-8.72986 14.50719,-25.13969 32.99639,-12.97196 l 40.95937,22.37596 8.1298,-8.17337 c 2.74358,-9.77388 -0.91244,-23.76902 -6.45116,-27.89587 -8.33349,-5.57385 -15.71351,-9.44497 -24.67589,-14.17791 l -37.1633,-19.62557 c 0.46082,-5.7596 2.43174,-10.69055 4.55449,-14.47466 7.68998,-13.19453 20.27409,-8.53696 29.40089,-4.24559 2.67733,1.27763 5.44238,2.76955 8.47357,4.32153 l 11.33403,5.80304 38.96035,22.14535 -21.72305,-43.9881 -79.13008,-39.02304 27.72278,-47.76715 c 8.10705,-12.24926 11.36029,-20.81875 29.28125,-10.71798 l 22.12605,12.41626 z"
       style="fill:#ffffff;fill-opacity:0.98571424;fill-rule:evenodd;stroke:none;stroke-width:1px;stroke-linecap:butt;stroke-linejoin:miter;stroke-opacity:1" />
    <g
       transform="translate(0.804578,-9.6549359)"
       id="g4527">
      <path
         style="fill:#2d5016;fill-rule:evenodd;stroke:none;stroke-width:1px;stroke-linecap:butt;stroke-linejoin:miter;stroke-opacity:1"
         d="m 419.95236,700.73766 146.33645,73.71022 -9.25734,17.92913 24.34582,10.83974 -62.91405,98.6416 48.86597,27.09935 -25.9718,37.89549 41.10384,21.09392 -9.21378,23.89099 -236.76108,0.542 c 4.1819,-26.10544 14.7308,-50.08855 34.23232,-71.08744 l -20.18423,-12.01087 -8.71538,15.21922 -36.18238,-21.59232 13.26055,-21.78255 c 5.1713,-8.72986 14.50719,-25.13969 32.99639,-12.97196 l 40.95937,22.37596 8.1298,-8.17337 c 2.74358,-9.77388 -0.91244,-23.76902 -6.45116,-27.89587 -8.33349,-5.57385 -15.71351,-9.44497 -24.67589,-14.17791 l -37.1633,-19.62557 c 0.46082,-5.7596 2.43174,-10.69055 4.55449,-14.47466 7.68998,-13.19453 20.27409,-8.53696 29.40089,-4.24559 2.67733,1.27763 5.44238,2.76955 8.47357,4.32153 l 11.33403,5.80304 38.96035,22.14535 -21.72305,-43.9881 -79.13008,-39.02304 27.72278,-47.76715 c 8.10705,-12.24926 11.36029,-20.81875 29.28125,-10.71798 l 22.12605,12.41626 z"
         id="path4179" />
      <rect
         style="fill:#ffffff;fill-opacity:1;stroke:none;stroke-width:1;stroke-linecap:round;stroke-linejoin:round;stroke-miterlimit:4;stroke-dasharray:none;stroke-opacity:1"
         id="rect4187"
         width="26.16885"
         height="26.16885"
         x="745.24475"
         y="473.56375"
         transform="matrix(0.90748498,0.42008452,-0.42008452,0.90748498,0,0)" />
      <path
         style="fill:#338000;fill-rule:evenodd;stroke:none;stroke-width:1px;stroke-linecap:butt;stroke-linejoin:miter;stroke-opacity:1"
         d="m 537.352,965.60127 25.51695,-34.68714 -42.27499,25.47338 z"
         id="path4189" />
      <path
         style="fill:#338000;fill-rule:evenodd;stroke:none;stroke-width:1px;stroke-linecap:butt;stroke-linejoin:miter;stroke-opacity:1"
         d="m 571.18362,1012.6499 10.72034,-22.90804 -26.84952,22.90904 z"
         id="path4189-7" />
    </g>
    <path
       id="path22-2-2"
       d="m 174.40467,558.35548 135.89012,0.35338 0,-53.48685 -42.93044,-0.35339 0.33789,-19.91701 -75.71989,-0.35376 0.50706,29.85891 -17.74688,0 z"
       style="fill:url(#linearGradient1255);fill-opacity:1;stroke:#e7e7e7;stroke-width:0;stroke-linecap:butt;stroke-linejoin:miter;stroke-miterlimit:4;stroke-dasharray:none;stroke-opacity:1" />
    <path
       id="path22-2-2-9-0"
       d="m 287.8892,557.41596 156.17276,0.46273 0,-55.26138 -49.33821,-0.46273 0.38804,-13.79184 -87.0215,-0.46303 0.58276,41.49785 -20.39584,0 z"
       style="fill:url(#linearGradient1239);fill-opacity:1;stroke:#e7e7e7;stroke-width:0;stroke-linecap:butt;stroke-linejoin:miter;stroke-miterlimit:4;stroke-dasharray:none;stroke-opacity:1" />
    <path
       id="path22-2-2-9-0-9"
       d="m 418.58959,578.93305 161.34671,0.47981 0,-57.30421 -50.97283,-0.47981 0.4009,-14.30173 -89.90445,-0.4803 0.60204,43.03188 -21.07151,0 z"
       style="fill:url(#linearGradient1247);fill-opacity:1;stroke:#e7e7e7;stroke-width:0;stroke-linecap:butt;stroke-linejoin:miter;stroke-miterlimit:4;stroke-dasharray:none;stroke-opacity:1" />
    <path
       id="path22-2-9"
       d="m 120.71101,702.22882 244.16591,0.54414 0,-74.8631 -77.13683,-0.54418 0.60741,-38.11211 -136.05271,-0.54471 0.91109,68.32963 -31.88746,0 z"
       style="fill:url(#linearGradient1263-2);fill-opacity:1;stroke:#e7e7e7;stroke-width:0;stroke-linecap:butt;stroke-linejoin:miter;stroke-miterlimit:4;stroke-dasharray:none;stroke-opacity:1" />
    <path
       id="path22-2-2-2"
       d="m 268.98605,613.55647 135.89087,0.35339 0,-53.48686 -42.93071,-0.35338 0.33789,-19.91702 -75.7203,-0.35376 0.50706,29.85891 -17.74696,0 z"
       style="fill:url(#linearGradient1255-9);fill-opacity:1;stroke:#e7e7e7;stroke-width:0;stroke-linecap:butt;stroke-linejoin:miter;stroke-miterlimit:4;stroke-dasharray:none;stroke-opacity:1" />
    <path
       id="path22-2-6-9-0"
       d="m 384.07892,667.91959 216.38808,0.47308 0,-65.11438 -68.36141,-0.47304 0.53832,-33.14907 -120.57441,-0.47403 0.80742,36.72771 -28.25972,0 z"
       style="fill:url(#linearGradient1271-1-0);fill-opacity:1;stroke:#e7e7e7;stroke-width:0;stroke-linecap:butt;stroke-linejoin:miter;stroke-miterlimit:4;stroke-dasharray:none;stroke-opacity:1" />
    <g
       id="g5208">
      <path
         style="fill:#ff2b00;fill-opacity:1;stroke:#ff0000;stroke-width:1.18600726px;stroke-linecap:butt;stroke-linejoin:miter;stroke-opacity:1"
         d="m 51.462591,452.0423 26.331812,0.34462 75.771987,46.52617 c -1.17452,-16.34943 -1.06868,-27.09471 -3.10684,-30.74926 -6.95279,-12.46681 3.41873,-1.83986 14.08734,8.25653 11.61157,11.16036 25.91803,62.64553 62.98962,86.42288 -7.94263,-21.83091 -20.54851,-47.74217 -16.62503,-59.19023 21.50787,29.56708 39.22087,58.48166 41.19232,93.9233 16.39835,-5.4482 12.78633,-22.01327 16.09581,-34.73307 43.48718,149.9645 -107.536,199.63985 -192.302604,119.44788 -39.420983,-45.76531 -29.520311,-50.42925 -33.294203,-66.48866 28.281203,18.06703 39.913781,16.58293 47.69572,10.57689 C 45.491427,619.29672 32.119893,541.95766 6.1827404,534.35584 L 59.801192,555.21891 C 27.781824,525.18466 24.004688,505.74126 16.517099,484.90643 c 25.192796,19.7066 46.087453,29.20513 58.532759,18.63645 z"
         id="path5057" />
      <path
         style="fill:#fa2b00;fill-opacity:1;stroke:none;stroke-width:1.01110113px;stroke-linecap:butt;stroke-linejoin:miter;stroke-opacity:1"
         d="m 63.924716,494.90076 24.724531,0.26674 71.146883,36.01346 c -1.10284,-12.65523 -1.00346,-20.97259 -2.91721,-23.80139 -6.5284,-9.6499 3.21003,-1.42413 13.22745,6.39095 10.9028,8.63865 24.33601,48.49058 59.14474,66.89536 -7.4578,-16.89814 -19.29424,-36.95466 -15.61023,-45.81602 20.19503,22.88633 36.82682,45.26756 38.67792,72.70105 15.39741,-4.21716 12.00587,-17.03931 15.11335,-26.88503 40.83274,116.07958 -100.97204,154.53061 -180.564483,92.45828 -37.014742,-35.4245 -27.718405,-39.0346 -31.261936,-51.46536 26.554925,13.98475 37.477467,12.83598 44.784369,8.18702 -42.072062,-5.48228 -54.627399,-65.34633 -78.981347,-71.23051 l 50.345579,16.149 c -30.064905,-23.24794 -33.611487,-38.29805 -40.64203,-54.42518 23.655023,15.25386 43.27428,22.60615 54.959934,14.42549 z"
         id="path5057-9" />
      <path
         style="fill:#ee2b00;fill-opacity:1;stroke:none;stroke-width:0.77779323px;stroke-linecap:butt;stroke-linejoin:miter;stroke-opacity:1"
         d="m 83.333455,518.86172 19.019435,0.2052 54.73,27.70349 c -0.84836,-9.73509 -0.77192,-16.13325 -2.24407,-18.30931 -5.022,-7.42322 2.46932,-1.09552 10.17526,4.91625 8.38702,6.64532 18.72056,37.30157 45.49731,51.45952 -5.73694,-12.99896 -14.84216,-28.42752 -12.00822,-35.24415 15.5351,17.60538 28.32916,34.82224 29.75313,55.92555 11.84451,-3.24406 9.23556,-13.10755 11.626,-20.6814 31.41073,89.29463 -77.67311,118.87324 -138.8999,71.12387 -28.473723,-27.25044 -21.322481,-30.02752 -24.048356,-39.58992 20.427474,10.75781 28.829686,9.87412 34.450546,6.29789 C 79.020496,618.45145 69.362258,572.4008 50.627893,567.87438 l 38.728523,12.42268 c -23.12754,-17.88357 -25.855761,-29.46092 -31.264033,-41.86677 18.196715,11.73408 33.288901,17.38985 42.278137,11.09686 z"
         id="path5057-9-6" />
      <path
         style="fill:#e42b00;fill-opacity:1;stroke:none;stroke-width:0.48615843px;stroke-linecap:butt;stroke-linejoin:miter;stroke-opacity:1"
         d="m 107.59437,548.81293 11.88808,0.12825 34.20889,17.31603 c -0.53026,-6.08491 -0.48248,-10.08406 -1.40265,-11.4442 -3.13898,-4.63987 1.54344,-0.68477 6.36003,3.07289 5.2423,4.15364 11.70126,23.31529 28.43803,32.16469 -3.58587,-8.12498 -9.27707,-17.76857 -7.50572,-22.0293 9.71019,11.00423 17.70709,21.76559 18.59714,34.95618 7.4034,-2.0277 5.77268,-8.19285 7.26682,-12.92688 19.63322,55.81347 -48.54946,74.30153 -86.81916,44.45587 -17.79746,-17.03284 -13.32759,-18.76866 -15.0314,-24.74563 12.76816,6.72416 18.01996,6.17181 21.53327,3.93649 -20.22913,-2.63599 -26.265995,-31.41988 -37.975885,-34.24911 l 24.207205,7.76478 c -14.455832,-11.1781 -16.161102,-18.4145 -19.541536,-26.16876 11.373836,7.33437 20.807176,10.8695 26.425876,6.93608 z"
         id="path5057-9-6-3" />
      <ellipse
         style="fill:url(#linearGradient5150);fill-opacity:1;stroke:none;stroke-width:1.28040314;stroke-opacity:1"
         id="path5059"
         cx="-199.93916"
         cy="617.43451"
         rx="71.584015"
         ry="76.666901"
         transform="matrix(0.83677921,-0.54754046,0.54754046,0.83677921,0,0)" />
      <ellipse
         style="fill:url(#linearGradient5200);fill-opacity:1;stroke:none;stroke-width:1.28040314;stroke-opacity:1"
         id="path5059-7"
         cx="-202.33337"
         cy="606.24353"
         rx="71.584015"
         ry="76.666901"
         transform="matrix(0.83677921,-0.54754046,0.54754046,0.83677921,0,0)" />
    </g>
    <path
       id="path22-2-2-2-1"
       d="m 7.42994,683.33267 135.89087,0.35339 0,-53.48686 -42.93071,-0.35338 0.33789,-19.91702 -75.7203,-0.35376 0.50706,29.85891 -17.74696,0 z"
       style="fill:url(#linearGradient1255-9-2);fill-opacity:1;stroke:#e7e7e7;stroke-width:0;stroke-linecap:butt;stroke-linejoin:miter;stroke-miterlimit:4;stroke-dasharray:none;stroke-opacity:1" />
  </g>
</svg>
